<?xml version="1.0" standalone="no"?>
<!DOCTYPE svg PUBLIC "-//W3C//DTD SVG 20010904//EN"
 "http://www.w3.org/TR/2001/REC-SVG-20010904/DTD/svg10.dtd">
<svg version="1.0" xmlns="http://www.w3.org/2000/svg"
 width="1200.000000pt" height="2132.000000pt" viewBox="0 0 1200.000000 2132.000000"
 preserveAspectRatio="xMidYMid meet">

<g transform="translate(0.000000,2132.000000) scale(0.100000,-0.100000)"
fill="#000000" stroke="none">
<path d="M5858 20778 l-3 -463 -392 -3 -393 -2 0 415 0 415 -200 0 -200 0 -2
-412 -3 -413 -332 -3 -333 -2 0 450 0 450 -200 0 -200 0 0 -725 0 -725 1330 0
1330 0 0 740 0 740 -200 0 -200 0 -2 -462z"/>
<path d="M3600 18595 l0 -895 220 0 220 0 0 310 0 310 1110 0 1110 0 0 275 0
275 -1110 0 -1110 0 0 310 0 310 -220 0 -220 0 0 -895z"/>
<path d="M4945 17535 c-715 -195 -1310 -357 -1322 -360 l-23 -5 0 -368 0 -367
1318 -364 c724 -200 1323 -366 1330 -369 9 -3 12 55 12 269 l0 274 -293 75
-292 75 -3 382 -2 383 27 7 c16 3 147 36 293 73 l265 66 3 292 c1 161 -1 292
-5 291 -5 0 -593 -160 -1308 -354z m315 -760 c0 -146 -3 -265 -7 -265 -17 0
-1136 250 -1141 255 -3 2 1 7 9 10 20 7 1111 263 1127 264 9 1 12 -58 12 -264z"/>
<path d="M9650 16590 c-76 -18 -248 -31 -535 -41 -327 -11 -378 -18 -478 -72
-110 -58 -183 -171 -216 -334 -10 -48 -21 -81 -24 -73 -2 8 -12 44 -22 80 -33
129 -122 251 -227 313 -118 69 -302 101 -495 86 -272 -21 -461 -136 -549 -334
-52 -118 -54 -145 -54 -752 l0 -563 1330 0 1330 0 0 280 0 280 -551 0 -551 0
5 148 c6 174 19 219 83 291 82 91 185 111 577 110 231 0 344 12 413 43 l24 11
0 269 c0 208 -3 268 -12 267 -7 -1 -29 -5 -48 -9z m-1638 -629 c31 -12 79 -42
107 -67 70 -63 81 -102 81 -286 l0 -148 -376 0 -376 0 4 163 c3 157 5 165 33
222 56 113 137 147 340 141 105 -2 141 -7 187 -25z"/>
<path d="M3600 15240 l0 -280 985 0 c680 0 1000 -3 1037 -11 127 -26 218 -93
261 -188 28 -63 35 -190 13 -263 -20 -71 -87 -147 -160 -183 -109 -53 -130
-54 -1173 -55 l-963 0 0 -275 0 -276 1038 3 c1170 4 1079 -2 1261 85 233 111
369 343 402 686 23 242 -21 492 -117 666 -23 41 -69 98 -123 151 -99 99 -198
154 -341 192 -85 22 -85 22 -1102 25 l-1018 4 0 -281z"/>
<path d="M9310 14085 l0 -465 -395 0 -395 0 0 415 0 415 -200 0 -200 0 0 -415
0 -415 -335 0 -335 0 0 450 0 450 -200 0 -200 0 0 -725 0 -725 1330 0 1330 0
0 740 0 740 -200 0 -200 0 0 -465z"/>
<path d="M4664 13260 c-477 -23 -746 -115 -908 -310 -49 -60 -101 -167 -128
-265 -22 -77 -22 -98 -26 -647 l-3 -568 1331 0 1331 0 -4 548 c-3 527 -4 550
-25 632 -37 140 -94 242 -187 336 -143 144 -321 223 -592 260 -132 18 -554 25
-789 14z m676 -571 c225 -20 362 -68 438 -154 66 -75 76 -121 77 -330 l0 -180
-925 0 -925 0 0 190 0 190 33 67 c56 113 154 171 355 209 139 26 692 31 947 8z"/>
<path d="M7050 11905 l0 -895 220 0 220 0 0 310 0 310 1110 0 1110 0 0 275 0
275 -1110 0 -1110 0 0 310 0 310 -220 0 -220 0 0 -895z"/>
<path d="M5460 10974 c-1097 -300 -1850 -504 -1855 -504 -3 0 -5 -165 -5 -368
l0 -367 1313 -364 c721 -200 1320 -366 1330 -369 16 -4 17 12 15 269 l-3 274
-292 75 -293 74 0 383 0 383 28 7 c15 3 146 36 292 73 l265 66 3 292 c1 161
-1 292 -5 291 -5 -1 -361 -97 -793 -215z m-200 -899 c0 -161 -4 -265 -10 -265
-10 0 -1093 238 -1123 246 -10 3 -16 9 -12 12 6 6 1102 268 1133 271 9 1 12
-58 12 -264z"/>
<path d="M7050 10485 l0 -255 920 0 c547 0 920 -4 920 -9 0 -11 29 1 -1032
-406 l-808 -310 0 -377 0 -378 1330 0 1330 0 0 260 0 260 -977 0 c-537 0 -973
3 -969 8 4 4 442 169 974 368 l967 361 3 366 2 367 -1330 0 -1330 0 0 -255z"/>
<path d="M2408 10058 l-3 -463 -390 0 -390 0 -3 413 -2 412 -205 0 -205 0 0
-415 0 -415 -327 2 -328 3 -3 448 -2 447 -200 0 -200 0 0 -725 0 -725 1330 0
1330 0 0 740 0 740 -200 0 -200 0 -2 -462z"/>
<path d="M6200 8780 c-76 -18 -239 -31 -530 -41 -331 -11 -384 -19 -483 -71
-111 -60 -183 -170 -216 -334 -10 -48 -20 -83 -23 -78 -3 5 -11 34 -18 64 -38
164 -135 285 -285 356 -98 47 -196 65 -350 65 -208 0 -345 -36 -471 -126 -103
-74 -169 -175 -205 -312 -18 -71 -19 -115 -19 -645 l0 -568 1330 0 1330 0 0
280 0 280 -551 0 -551 0 4 148 c4 121 9 157 27 204 28 73 86 131 159 158 74
28 253 44 421 37 173 -6 339 7 424 33 l67 21 0 269 c0 210 -3 270 -12 269 -7
-1 -29 -5 -48 -9z m-1638 -630 c70 -28 132 -79 161 -134 19 -36 22 -59 25
-203 l4 -163 -377 0 -377 0 4 168 c5 174 12 207 57 264 12 15 38 37 58 49 64
40 118 49 258 45 107 -2 140 -7 187 -26z"/>
<path d="M150 8185 l0 -275 530 0 530 0 0 -320 0 -320 -530 0 -530 0 0 -280 0
-280 1330 0 1330 0 0 280 0 280 -595 0 -595 0 0 320 0 320 595 0 595 0 0 275
0 275 -1330 0 -1330 0 0 -275z"/>
<path d="M9308 7918 l-3 -463 -390 0 -390 0 -3 413 -2 412 -200 0 -200 0 -2
-412 -3 -413 -330 0 -330 0 -3 448 -2 447 -200 0 -200 0 0 -725 0 -725 1330 0
1330 0 0 740 0 740 -200 0 -200 0 -2 -462z"/>
<path d="M4180 6605 c-435 -68 -673 -444 -620 -979 41 -420 231 -647 620 -745
166 -42 277 -52 625 -58 763 -13 1110 58 1297 266 208 232 255 675 143 1369
-14 84 -25 155 -25 157 0 3 -304 5 -675 5 l-675 0 0 -430 0 -430 200 0 199 0
3 148 3 147 300 0 300 0 18 -65 c27 -95 34 -281 13 -351 -31 -110 -125 -180
-282 -213 -156 -33 -288 -41 -704 -41 -530 0 -649 13 -807 90 -115 56 -163
135 -163 265 0 142 66 246 184 289 47 17 188 39 264 41 9 0 12 62 12 275 l0
275 -72 -1 c-40 -1 -111 -7 -158 -14z"/>
<path d="M8822 6269 l3 -274 130 -6 c306 -15 415 -91 403 -283 -10 -147 -91
-230 -271 -275 -146 -38 -275 -46 -707 -46 -432 0 -561 8 -707 46 -186 47
-273 144 -273 302 0 106 53 170 165 203 59 17 195 34 273 34 l52 0 0 270 0
270 -109 0 c-257 0 -468 -74 -594 -208 -61 -66 -95 -122 -127 -212 -40 -108
-54 -206 -53 -365 2 -475 185 -742 577 -844 186 -49 280 -55 781 -56 502 0
595 6 782 50 253 60 419 180 512 369 103 209 129 559 60 806 -85 308 -334 464
-774 487 l-125 6 2 -274z"/>
<path d="M150 5530 l0 -900 215 0 215 0 2 313 3 312 1113 3 1112 2 0 275 0
275 -1112 2 -1113 3 -3 308 -2 307 -215 0 -215 0 0 -900z"/>
<path d="M354 3519 c-66 -15 -145 -69 -181 -123 -75 -110 -99 -279 -90 -630 6
-256 18 -333 67 -433 35 -70 72 -106 148 -141 66 -30 194 -41 270 -23 133 32
223 155 239 327 l6 64 -62 0 c-61 0 -61 0 -61 -30 0 -42 -20 -130 -37 -165
-40 -79 -92 -109 -188 -108 -175 2 -244 92 -266 350 -13 145 -6 494 11 589 16
86 57 163 105 196 78 55 215 58 288 6 39 -28 74 -107 83 -185 l6 -63 56 0 55
0 -6 82 c-10 155 -90 260 -217 287 -60 13 -168 13 -226 0z"/>
<path d="M9240 3515 c-151 -42 -230 -166 -217 -343 11 -139 68 -206 302 -352
223 -138 264 -185 273 -311 11 -161 -70 -252 -228 -253 -90 -1 -158 22 -194
65 -31 37 -56 117 -56 181 l0 48 -61 0 -62 0 7 -69 c10 -110 33 -169 91 -227
61 -62 118 -84 236 -91 178 -11 292 44 351 172 20 43 23 66 23 170 0 111 -2
124 -27 170 -37 70 -70 98 -268 225 -238 154 -254 169 -271 269 -14 74 2 159
37 200 35 42 104 66 189 65 149 0 209 -53 224 -199 l6 -60 59 -3 59 -3 -6 63
c-14 137 -59 216 -150 262 -50 26 -70 30 -160 33 -70 2 -119 -2 -157 -12z"/>
<path d="M1040 2845 l0 -665 55 0 55 0 0 665 0 665 -55 0 -55 0 0 -665z"/>
<path d="M1310 3460 l0 -50 160 0 160 0 0 -615 0 -615 55 0 55 0 0 615 0 615
160 0 160 0 0 50 0 50 -375 0 -375 0 0 -50z"/>
<path d="M5870 2845 l0 -665 55 0 55 0 0 665 0 665 -55 0 -55 0 0 -665z"/>
<path d="M7270 2845 l0 -665 305 0 305 0 0 50 0 50 -250 0 -250 0 2 268 3 267
228 3 227 2 0 45 0 45 -230 0 -230 0 0 250 0 250 246 0 245 0 -3 48 -3 47
-297 3 -298 2 0 -665z"/>
<path d="M9965 3498 c-3 -7 -4 -305 -3 -663 l3 -650 55 0 55 0 0 660 0 660
-53 3 c-36 2 -54 -1 -57 -10z"/>
<path d="M10250 3460 l0 -50 160 0 160 0 0 -615 0 -615 55 0 55 0 0 615 0 615
166 0 165 0 -3 48 -3 47 -377 3 -378 2 0 -50z"/>
<path d="M2140 3496 c0 -3 83 -177 185 -387 l185 -382 0 -269 0 -268 55 0 55
0 0 274 0 273 185 377 c102 208 185 380 185 382 0 3 -25 4 -56 2 l-55 -3 -156
-323 c-86 -177 -159 -319 -163 -315 -3 4 -71 151 -151 325 l-144 317 -62 1
c-35 0 -63 -2 -63 -4z"/>
<path d="M3560 3018 c0 -290 4 -509 11 -548 23 -142 98 -244 210 -285 75 -28
250 -28 329 -1 79 28 159 110 190 196 24 65 24 66 28 593 l3 527 -55 0 -56 0
0 -457 c0 -252 -5 -492 -10 -533 -23 -173 -108 -254 -265 -254 -129 0 -210 59
-251 184 -15 49 -18 110 -22 558 l-4 502 -54 0 -54 0 0 -482z"/>
<path d="M4670 2845 l0 -655 55 0 55 0 0 587 c0 334 4 583 9 578 5 -6 127
-270 272 -587 l264 -578 88 0 87 0 0 655 0 655 -55 0 -55 0 0 -577 c0 -355 -4
-573 -9 -568 -5 6 -128 265 -272 578 l-262 567 -88 0 -89 0 0 -655z"/>
<path d="M6193 3488 c2 -7 85 -302 183 -656 l179 -643 74 3 74 3 173 625 c95
344 176 637 179 653 7 27 6 27 -47 27 l-53 0 -149 -543 c-171 -621 -176 -640
-181 -635 -2 1 -67 244 -145 538 -77 294 -148 559 -156 588 l-15 52 -60 0
c-44 0 -59 -3 -56 -12z"/>
<path d="M8110 2845 l0 -655 55 0 55 0 0 320 0 320 123 0 c142 -1 199 -11 245
-47 65 -49 75 -91 83 -338 4 -121 8 -228 8 -237 1 -15 11 -18 56 -18 l54 0 -4
93 c-3 50 -7 164 -10 252 -7 237 -28 288 -129 317 -59 17 -62 23 -14 39 59 19
123 83 139 139 17 58 17 261 1 318 -7 24 -29 61 -49 83 -56 62 -95 69 -375 69
l-238 0 0 -655z m491 537 c52 -32 72 -85 72 -192 0 -102 -14 -158 -50 -201
-44 -52 -81 -62 -250 -67 l-153 -4 0 247 0 247 173 -4 c158 -3 175 -5 208 -26z"/>
<path d="M11083 3488 c3 -7 87 -181 186 -386 l181 -373 0 -269 0 -270 55 0 55
0 0 270 0 270 185 380 c102 209 185 382 185 385 0 3 -24 5 -53 5 l-54 0 -153
-317 c-84 -175 -156 -321 -159 -326 -4 -4 -75 139 -157 318 l-149 325 -63 0
c-48 0 -63 -3 -59 -12z"/>
<path d="M400 1429 c-155 -27 -244 -127 -281 -314 -20 -98 -20 -645 0 -730 35
-153 94 -241 194 -286 46 -21 67 -24 182 -24 127 0 132 1 197 33 103 51 155
135 184 302 13 78 15 147 12 390 -4 280 -6 299 -30 377 -53 176 -142 244 -331
257 -40 3 -97 0 -127 -5z m243 -122 c54 -32 93 -91 115 -176 19 -75 28 -535
13 -666 -20 -173 -73 -260 -175 -290 -112 -34 -219 -13 -286 54 -84 84 -106
221 -97 601 7 315 31 406 123 469 49 34 81 41 175 38 72 -3 93 -7 132 -30z"/>
<path d="M7389 1430 c-158 -27 -248 -126 -284 -315 -34 -177 -28 -625 11 -779
33 -131 106 -215 218 -250 80 -25 261 -19 327 11 103 46 162 132 197 285 13
59 16 129 16 368 0 313 -8 390 -52 492 -65 149 -233 222 -433 188z m202 -105
c82 -29 130 -96 154 -214 33 -161 27 -643 -10 -767 -20 -68 -65 -129 -117
-156 -36 -19 -58 -23 -138 -23 -86 0 -99 3 -143 28 -55 32 -88 80 -114 163
-16 52 -18 99 -18 394 0 322 1 338 23 408 26 84 82 150 142 169 52 16 171 15
221 -2z"/>
<path d="M1130 750 l0 -660 60 0 60 0 0 315 0 315 205 0 205 0 0 50 0 50 -205
0 -205 0 0 250 0 250 220 0 220 0 0 45 0 45 -280 0 -280 0 0 -660z"/>
<path d="M2270 750 l0 -660 55 0 55 0 0 585 c0 322 3 585 8 585 4 0 127 -262
274 -582 l267 -583 91 -3 90 -3 0 661 0 660 -60 0 -60 0 -2 -581 -3 -581 -267
579 -267 578 -91 3 -90 3 0 -661z"/>
<path d="M3430 750 l0 -660 300 0 300 0 0 50 0 50 -245 0 -245 0 0 265 0 265
230 0 230 0 0 50 0 50 -230 0 -230 0 0 250 0 250 240 0 240 0 0 45 0 45 -295
0 -295 0 0 -660z"/>
<path d="M4187 1383 c3 -16 75 -311 158 -658 l152 -630 71 -3 71 -3 9 33 c5
18 67 284 138 590 71 307 131 554 135 550 3 -4 63 -263 134 -577 70 -314 130
-576 132 -582 4 -9 29 -13 78 -13 l73 0 161 649 c89 356 161 653 161 660 0 7
-20 11 -53 11 l-53 0 -138 -572 c-76 -315 -141 -576 -145 -580 -3 -4 -64 246
-134 555 -71 309 -131 570 -133 580 -5 14 -18 17 -82 17 l-77 0 -135 -585
c-74 -321 -137 -581 -141 -577 -3 4 -61 250 -128 547 -67 297 -127 557 -132
578 l-10 37 -60 0 -59 0 7 -27z"/>
<path d="M6110 1405 c0 -4 83 -179 185 -390 l185 -383 0 -271 0 -271 55 0 55
0 0 275 0 274 185 380 c102 209 185 383 185 386 0 3 -24 5 -54 5 l-53 0 -155
-321 c-85 -176 -158 -320 -164 -320 -5 1 -74 144 -154 319 l-146 317 -62 3
c-34 2 -62 0 -62 -3z"/>
<path d="M8140 751 l0 -661 55 0 55 0 0 320 0 320 145 0 c190 0 232 -16 278
-105 18 -35 21 -67 29 -275 4 -129 10 -241 13 -247 3 -8 24 -13 55 -13 l50 0
-5 158 c-12 382 -16 416 -56 466 -13 16 -43 33 -82 45 -49 15 -58 21 -42 26
150 54 192 132 183 345 -7 152 -39 215 -133 257 -34 15 -77 18 -292 21 l-253
4 0 -661z m431 559 c56 -11 90 -35 117 -85 24 -43 23 -214 -1 -276 -37 -97
-91 -119 -293 -119 l-144 0 0 238 c0 131 3 242 7 245 10 11 254 8 314 -3z"/>
<path d="M9150 750 l0 -660 55 0 55 0 0 341 c0 201 4 338 9 335 5 -4 109 -147
230 -320 122 -172 229 -323 238 -335 16 -19 26 -22 85 -19 l67 3 -253 350
-253 350 31 40 c17 21 127 159 245 305 l214 265 -63 3 c-51 2 -67 -1 -81 -15
-9 -10 -115 -144 -234 -298 -118 -154 -220 -281 -225 -283 -6 -2 -10 109 -10
297 l0 301 -55 0 -55 0 0 -660z"/>
</g>
</svg>
