<?xml version="1.0" standalone="no"?>
<!DOCTYPE svg PUBLIC "-//W3C//DTD SVG 20010904//EN"
 "http://www.w3.org/TR/2001/REC-SVG-20010904/DTD/svg10.dtd">
<svg version="1.0" xmlns="http://www.w3.org/2000/svg"
 width="200.000000pt" height="200.000000pt" viewBox="0 0 200.000000 200.000000"
 preserveAspectRatio="xMidYMid meet">

<g transform="translate(0.000000,200.000000) scale(0.100000,-0.100000)"
fill="#000000" stroke="none">
<path d="M412 1261 c-36 -8 -61 -19 -59 -25 3 -6 -2 -52 -9 -101 -7 -50 -14
-95 -14 -102 0 -25 32 -43 76 -43 l44 0 0 73 c1 39 7 104 14 142 8 39 13 70
12 70 0 0 -29 -6 -64 -14z"/>
<path d="M535 1270 c-12 -4 -27 -16 -35 -26 -8 -10 -10 -15 -3 -11 20 13 22
-6 8 -103 -17 -120 -8 -140 59 -140 l43 0 6 68 c4 37 9 96 13 131 6 56 5 66
-11 78 -21 15 -50 16 -80 3z"/>
<path d="M686 1264 c-19 -11 -25 -19 -17 -24 10 -5 10 -29 0 -109 -15 -117
-10 -134 41 -139 44 -5 88 7 71 18 -11 6 -11 23 -1 96 18 120 17 144 -5 160
-24 18 -53 17 -89 -2z"/>
<path d="M1023 1254 c-15 -14 -22 -23 -15 -19 15 8 16 -31 1 -127 -15 -100 -6
-118 61 -118 34 0 49 4 45 11 -4 6 1 62 11 125 17 110 17 114 -1 134 -25 28
-68 25 -102 -6z"/>
<path d="M1205 1270 c-12 -4 -27 -16 -35 -26 -8 -10 -10 -15 -3 -11 20 12 21
-5 8 -102 -18 -125 -11 -141 57 -141 47 0 75 10 57 21 -10 6 -10 25 -1 97 7
49 12 101 12 115 0 47 -43 69 -95 47z"/>
<path d="M1446 1265 c-120 -42 -165 -200 -73 -255 40 -25 135 -27 177 -5 17 9
30 17 30 18 0 1 -22 0 -48 -1 -60 -4 -74 10 -80 83 -5 61 20 149 46 165 26 15
-5 12 -52 -5z"/>
<path d="M902 1256 c-30 -6 -51 -14 -47 -18 4 -4 2 -54 -5 -112 -15 -126 -11
-136 59 -136 l47 0 -4 38 c-2 21 3 80 12 130 9 51 16 97 16 102 0 12 -8 11
-78 -4z"/>
<path d="M1563 1236 c-1 -36 14 -50 42 -40 22 9 18 41 -7 58 -31 22 -34 21
-35 -18z"/>
<path d="M1617 1043 c-10 -10 -8 -41 3 -48 20 -12 50 6 50 31 0 18 -5 24 -23
24 -13 0 -27 -3 -30 -7z"/>
<path d="M511 833 c0 -19 3 -23 7 -13 4 8 14 15 22 15 8 0 18 -7 22 -15 4 -10
7 -5 7 14 1 25 -1 27 -16 15 -13 -11 -17 -11 -20 -1 -8 22 -23 12 -22 -15z"/>
<path d="M620 840 c-6 -12 -9 -24 -6 -27 3 -3 8 2 12 11 6 15 7 15 21 -1 13
-16 13 -15 2 7 -16 34 -16 34 -29 10z"/>
<path d="M700 828 c0 -23 3 -29 9 -19 5 7 13 11 18 8 5 -3 10 0 10 7 0 8 -6
12 -14 9 -7 -3 -13 0 -13 5 0 6 8 13 18 15 13 4 11 5 -5 6 -19 1 -23 -4 -23
-31z"/>
<path d="M840 852 c0 -5 9 -17 20 -27 11 -10 20 -15 20 -12 0 4 -9 16 -20 27
-11 11 -20 16 -20 12z"/>
<path d="M936 844 c-9 -24 -7 -27 9 -10 17 17 19 26 6 26 -5 0 -12 -7 -15 -16z"/>
<path d="M1070 854 c0 -6 7 -17 15 -24 12 -10 15 -10 16 1 1 8 5 3 9 -11 7
-23 8 -23 9 9 1 29 -1 32 -15 20 -13 -10 -17 -10 -25 2 -5 8 -9 9 -9 3z"/>
<path d="M1172 832 c-9 -21 -9 -23 0 -10 11 15 13 15 24 0 12 -15 12 -14 7 6
-8 33 -19 35 -31 4z"/>
<path d="M1252 830 c0 -19 2 -27 5 -17 5 20 29 23 36 5 3 -7 5 1 5 17 0 17 -2
24 -5 18 -2 -7 -11 -13 -18 -13 -7 0 -16 6 -18 13 -3 6 -5 -4 -5 -23z"/>
<path d="M1340 830 c0 -25 4 -30 23 -29 16 1 18 2 5 6 -21 5 -24 23 -5 23 8 0
8 3 -2 9 -11 7 -10 10 5 14 16 4 16 5 -3 6 -19 1 -23 -4 -23 -29z"/>
<path d="M1420 837 c0 -15 6 -23 18 -23 10 0 19 6 19 12 0 7 -6 10 -14 7 -7
-3 -13 0 -13 5 0 6 8 13 18 15 13 4 11 5 -5 6 -18 1 -23 -4 -23 -22z"/>
<path d="M781 824 c0 -11 3 -14 6 -6 3 7 2 16 -1 19 -3 4 -6 -2 -5 -13z"/>
<path d="M955 820 c3 -5 8 -10 11 -10 2 0 4 5 4 10 0 6 -5 10 -11 10 -5 0 -7
-4 -4 -10z"/>
<path d="M631 748 c-1 -22 18 -33 32 -19 9 9 8 11 -5 6 -11 -4 -18 0 -21 12
-4 15 -5 16 -6 1z"/>
<path d="M701 735 c0 -11 3 -14 6 -7 2 6 11 12 19 12 8 0 14 4 14 8 0 4 -9 8
-20 8 -14 0 -20 -7 -19 -21z"/>
<path d="M770 752 c0 -4 11 -8 25 -8 28 0 24 8 -5 13 -11 2 -20 -1 -20 -5z"/>
<path d="M912 740 c0 -14 2 -19 5 -12 2 6 2 18 0 25 -3 6 -5 1 -5 -13z"/>
<path d="M937 745 c-4 -8 -2 -17 3 -20 6 -4 10 3 10 14 0 25 -6 27 -13 6z"/>
<path d="M982 740 c0 -14 2 -19 5 -12 2 6 2 18 0 25 -3 6 -5 1 -5 -13z"/>
<path d="M1202 740 c0 -14 2 -19 5 -12 2 6 2 18 0 25 -3 6 -5 1 -5 -13z"/>
<path d="M1243 746 c1 -11 9 -21 17 -23 10 -3 11 -2 4 4 -6 4 -14 15 -17 23
-5 11 -6 9 -4 -4z"/>
<path d="M1312 740 c0 -14 2 -19 5 -12 2 6 2 18 0 25 -3 6 -5 1 -5 -13z"/>
<path d="M1337 745 c-4 -8 -2 -17 3 -20 6 -4 10 3 10 14 0 25 -6 27 -13 6z"/>
<path d="M1086 731 c-4 -5 3 -7 14 -4 23 6 26 13 6 13 -8 0 -17 -4 -20 -9z"/>
<path d="M1390 730 c-9 -6 -10 -10 -3 -10 6 0 15 5 18 10 8 12 4 12 -15 0z"/>
</g>
</svg>
