<?xml version="1.0" standalone="no"?>
<!DOCTYPE svg PUBLIC "-//W3C//DTD SVG 20010904//EN"
 "http://www.w3.org/TR/2001/REC-SVG-20010904/DTD/svg10.dtd">
<svg version="1.0" xmlns="http://www.w3.org/2000/svg"
 width="1575.000000pt" height="675.000000pt" viewBox="0 0 1575.000000 675.000000"
 preserveAspectRatio="xMidYMid meet">

<g transform="translate(0.000000,675.000000) scale(0.100000,-0.100000)"
fill="#000000" stroke="none">
<path d="M4500 5625 l0 -1125 -2250 0 -2250 0 0 -1125 0 -1125 3375 0 3375 0
0 -1125 0 -1125 1125 0 1125 0 0 1125 0 1125 3375 0 3375 0 0 1125 0 1125
-4500 0 -4500 0 0 1125 0 1125 -1125 0 -1125 0 0 -1125z m1249 494 c144 -23
212 -95 231 -242 22 -173 -30 -298 -147 -357 -44 -23 -63 -25 -213 -30 l-165
-5 -3 -182 -2 -183 -95 0 -95 0 0 505 0 505 213 0 c116 0 241 -5 276 -11z
m-4839 -2744 l0 -505 -95 0 -95 0 0 505 0 505 95 0 95 0 0 -505z m583 492 c-4
-8 -88 -113 -186 -235 -120 -148 -176 -225 -171 -234 4 -7 93 -127 196 -266
103 -139 188 -255 188 -258 0 -2 -48 -3 -107 -2 l-107 3 -192 265 c-105 146
-189 270 -186 275 3 6 84 112 181 238 l175 227 108 0 c89 0 107 -3 101 -13z
m2227 -67 l0 -80 -250 0 -250 0 0 -125 0 -125 215 0 215 0 0 -80 0 -80 -215 0
-215 0 0 -140 0 -140 250 0 250 0 0 -80 0 -80 -345 0 -345 0 0 505 0 505 345
0 345 0 0 -80z m6750 0 l0 -80 -250 0 -250 0 0 -125 0 -125 215 0 215 0 0 -80
0 -80 -215 0 -215 0 0 -140 0 -140 250 0 250 0 0 -80 0 -80 -345 0 -345 0 0
505 0 505 345 0 345 0 0 -80z m4339 56 c68 -25 107 -60 137 -123 25 -50 28
-69 29 -152 0 -124 -18 -174 -86 -235 -27 -25 -65 -50 -84 -56 -19 -6 -35 -16
-35 -21 0 -5 44 -87 99 -182 54 -95 103 -182 110 -194 l12 -23 -103 0 -103 0
-105 193 -106 192 -67 3 -67 3 0 -196 0 -195 -90 0 -90 0 0 506 0 506 253 -4
c203 -4 261 -8 296 -22z m-7049 -2656 l0 -410 205 0 205 0 0 -75 0 -75 -295 0
-295 0 0 485 0 485 90 0 90 0 0 -410z"/>
<path d="M5452 5808 l3 -163 142 0 c135 0 144 1 165 23 21 21 23 31 23 142 0
160 8 154 -186 158 l-150 4 3 -164z"/>
<path d="M14445 3708 c-3 -8 -4 -77 -3 -153 l3 -140 143 0 144 0 24 28 c22 26
24 37 24 126 0 146 1 145 -184 149 -117 3 -147 1 -151 -10z"/>
</g>
</svg>
